<svg width="94" height="24" viewBox="0 0 94 24" fill="none" xmlns="http://www.w3.org/2000/svg">
<g clip-path="url(#clip0_863419_476)">
<path d="M3.5026 20.1855H6.20018V23.6997C5.47536 23.8918 4.73064 23.9925 3.98231 23.9997C1.06622 23.9997 0 22.5119 0 20.055C0 17.5981 1.42108 16.6001 3.26273 16.6001C5.22103 16.6001 6.14268 17.4795 6.14268 19.1265V19.3162H4.74132V19.1858C4.74132 18.3877 4.18438 17.959 3.2923 17.959C2.37066 17.959 1.564 18.5673 1.564 20.0448C1.564 21.4428 1.89258 22.7204 3.89688 22.7204C4.09731 22.7204 4.41438 22.7017 4.75938 22.6712V21.3733H3.5026V20.1855Z" fill="#181B1B"/>
<path d="M8.99208 21.5142C8.99208 22.4224 9.32064 22.5918 10.2111 22.5918H12.1119V23.9101H10.1832C8.14765 23.9101 7.5332 23.3899 7.5332 21.5633V16.7003H11.987V17.9881H8.99208V19.4859H11.5073V20.7652H8.99208V21.5142Z" fill="#181B1B"/>
<path d="M15.3925 17.9593H14.8355V20.811C15.5173 20.611 16.6591 20.2823 16.6591 19.0539C16.6591 18.2151 16.1219 17.9559 15.3925 17.9559V17.9593ZM17.1388 21.16C17.718 21.9848 18.1533 22.9074 18.4252 23.8864H16.8612C16.6383 23.1677 16.3216 22.4836 15.9198 21.8531C15.5601 22.0022 15.1919 22.129 14.8174 22.2326V23.8898H13.3389V16.7003H15.6044C16.9959 16.7003 18.2527 17.2086 18.2527 19.0064C18.2527 19.9756 17.773 20.6653 17.1388 21.1634" fill="#181B1B"/>
<path d="M21.0835 21.6127C21.8291 21.3632 22.6015 21.209 23.3835 21.1536C23.0984 20.2288 22.7384 19.3304 22.3074 18.4679C21.799 19.4707 21.3911 20.5245 21.09 21.6127H21.0835ZM25.5127 23.8901H24.0341C23.9623 23.3929 23.8664 22.8998 23.7466 22.4125C22.7186 22.4461 21.7025 22.6492 20.7368 23.014C20.6695 23.314 20.6218 23.6037 20.5841 23.8833H19.1055C19.4784 21.4874 20.3426 19.0897 21.6568 16.6938H22.9711C24.2854 19.0897 25.1496 21.4874 25.5143 23.8833" fill="#181B1B"/>
<path d="M26.5713 16.7003H28.0384C29.2196 17.6085 30.1593 18.7336 31.0514 20.1247V16.7003H32.5201V23.8898H31.0514V22.602C30.092 20.8839 29.08 19.5656 28.0384 18.6184V23.8898H26.5713V16.7003Z" fill="#181B1B"/>
<path d="M35.581 22.541C37.357 22.541 38.7025 21.6226 38.7025 19.9451C38.7025 18.4388 37.743 18.0389 36.5438 18.0389H35.5745L35.581 22.541ZM34.1123 16.7003H36.7803C38.4413 16.7003 40.255 17.4204 40.255 19.8858C40.255 22.6512 37.8466 23.8898 35.581 23.8898H34.1123V16.7003Z" fill="#181B1B"/>
<path d="M44.707 17.8875C43.3631 17.8875 42.6912 18.916 42.6912 20.2597C42.6912 21.6034 43.3631 22.6963 44.707 22.6963C46.0508 22.6963 46.7211 21.6068 46.7211 20.2597C46.7211 18.9126 46.041 17.8875 44.707 17.8875ZM44.707 23.9874C42.4513 23.9874 41.1748 22.5489 41.1748 20.2732C41.1748 17.9976 42.4612 16.598 44.707 16.598C46.9528 16.598 48.2277 17.9756 48.2277 20.2529C48.2277 22.5302 46.9429 23.9807 44.707 23.9807" fill="#181B1B"/>
<path d="M51.7686 23.8898V16.7003H56.2782V18.0389H53.257V19.9451H55.7328V21.2736H53.257V23.8898H51.7686Z" fill="#181B1B"/>
<path d="M58.5339 21.6125C59.2796 21.3631 60.052 21.2089 60.834 21.1533C60.5501 20.2283 60.1907 19.3299 59.7595 18.4676C59.2506 19.4704 58.8421 20.5241 58.5405 21.6125H58.5339ZM62.9648 23.8898H61.4862C61.4138 23.3926 61.3173 22.8995 61.197 22.4122C60.1743 22.4498 59.1638 22.6551 58.2037 23.0205C58.1364 23.3205 58.0887 23.6102 58.0509 23.8898H56.5625C56.9371 21.4939 57.8012 19.0962 59.1155 16.7003H60.4298C61.7441 19.0962 62.6083 21.4939 62.973 23.8898" fill="#181B1B"/>
<path d="M66.4027 22.541H68.4842V23.9101H66.3731C64.6941 23.9101 63.9844 23.6 63.9844 21.7074V16.7003H65.481V21.6328C65.481 22.3428 65.6634 22.541 66.4027 22.541" fill="#181B1B"/>
<path d="M75.04 23.7692C74.3644 23.914 73.6764 23.9878 72.9864 23.9895C70.2888 23.9895 68.917 22.4645 68.917 20.0652C68.917 17.5235 70.3857 16.6001 72.2372 16.6001C74.1955 16.6001 75.04 17.5896 75.04 19.2959V19.4755H73.6698V19.3366C73.6698 18.447 73.1622 17.9488 72.2307 17.9488C71.2449 17.9488 70.4366 18.4877 70.4366 20.0347C70.4366 21.153 70.8786 22.6916 73.3544 22.6916C73.9209 22.6825 74.4857 22.6258 75.0433 22.5221L75.04 23.7692Z" fill="#181B1B"/>
<path d="M78.9828 18.9778C77.9461 18.9778 77.4089 19.7861 77.4089 20.8044C77.4089 21.8228 77.9461 22.692 78.9828 22.692C80.0194 22.692 80.5567 21.833 80.5567 20.8044C80.5567 19.7759 80.0194 18.9778 78.9828 18.9778ZM78.9828 23.9798C77.0261 23.9798 75.8926 22.7615 75.8926 20.8146C75.8926 18.8677 77.0261 17.6901 78.9828 17.6901C80.9394 17.6901 82.073 18.8575 82.073 20.8044C82.073 22.7513 80.9411 23.9798 78.9828 23.9798Z" fill="#181B1B"/>
<path d="M84.827 21.5142C84.827 22.4224 85.1556 22.5918 86.046 22.5918H87.9452V23.9101H86.0165C83.9826 23.9101 83.3682 23.3899 83.3682 21.5633V16.7003H87.822V17.9881H84.827V19.4859H87.3406V20.7652H84.827V21.5142Z" fill="#181B1B"/>
<path d="M90.6313 18.6578C90.6313 20.1557 93.9992 19.3966 93.9992 21.9535C93.9992 23.6903 92.7604 23.9868 91.3607 23.9868C90.5573 23.9836 89.761 23.8315 89.0098 23.5378V22.2686C89.7101 22.5783 90.464 22.738 91.226 22.738C91.8109 22.738 92.5403 22.638 92.5403 21.9501C92.5403 20.6911 89.1724 21.3214 89.1724 18.6544C89.1724 17.4361 89.9594 16.5974 91.5036 16.5974C93.0775 16.5974 93.8037 17.4446 93.8037 18.7256V18.9052H92.4121V18.7781C92.4121 18.1884 92.0573 17.8597 91.5201 17.8597C90.9829 17.8597 90.628 18.1884 90.628 18.6578" fill="#181B1B"/>
<path d="M77.3711 17.119C78.7544 17.5561 79.2686 16.5937 80.5665 17.18V16.2074C79.2686 15.6211 78.7593 16.5835 77.3711 16.1464V17.119Z" fill="#181B1B"/>
<path d="M60.1978 0.17812C59.7212 0.251387 59.2494 0.354368 58.7849 0.486503C56.9778 1.34219 53.922 3.16371 51.6631 5.36479C60.6989 2.93666 71.2132 6.18489 72.4059 6.16287C73.6414 6.13745 74.1704 5.58507 74.1704 5.58507C74.1704 5.58507 78.2907 6.23742 79.4933 6.39839C81.4647 6.66103 82.7462 4.9022 82.7462 4.9022C67.796 2.14705 66.3175 -0.75382 60.1978 0.17812" fill="#181B1B"/>
<path d="M47.0008 11.0461C47.5511 10.8207 48.5878 9.7837 49.4651 8.14857C51.2722 4.76986 56.2583 1.68091 58.7834 0.482941C56.3947 1.12683 52.3762 3.03646 49.93 3.83454C48.9805 4.13459 47.9953 4.29767 47.0024 4.31915V4.31915C46.009 4.29752 45.0233 4.13444 44.0731 3.83454C41.622 3.03646 37.6101 1.12344 35.2197 0.482941C37.7465 1.68091 42.7276 4.76986 44.5397 8.14857C45.4154 9.7837 46.452 10.8207 47.004 11.0461H47.0008Z" fill="#7B7C7E"/>
<path d="M35.2262 0.486503C34.7606 0.354371 34.2877 0.251392 33.8101 0.17812C27.692 -0.75382 26.2184 2.14705 11.2617 4.9022C11.2617 4.9022 12.5481 6.66103 14.5162 6.39839C15.7172 6.23742 19.8375 5.58507 19.8375 5.58507C19.8375 5.58507 20.3665 6.13745 21.6036 6.16287C22.793 6.18489 33.3024 2.94344 42.3464 5.36648C40.0875 3.16372 37.0317 1.34389 35.2262 0.486503" fill="#181B1B"/>
</g>
<defs>
<clipPath id="clip0_863419_476">
<rect width="94" height="24" fill="white"/>
</clipPath>
</defs>
</svg>
