<svg width="261" height="352" viewBox="0 0 261 352" fill="none" xmlns="http://www.w3.org/2000/svg">
<path fill-rule="evenodd" clip-rule="evenodd" d="M209.382 310.772C179.366 315.328 148.806 315.557 118.54 313.903C106.562 313.007 94.5475 312.845 82.5792 313.991C75.5071 314.517 44.4995 316.885 41.966 310.555C43.5605 276.846 46.7899 242.851 56.6968 210.431C60.771 198.92 64.2703 189.366 72.2221 179.84C74.7283 177.239 80.133 171.784 83.2298 170.005C85.9128 168.464 87.0342 169.014 88.5748 166.411C90.1057 163.536 91.2349 158.734 93.4087 156.705C95.6219 154.639 98.9019 155.378 102.967 156.043C102.221 145.956 106.879 143.387 113.298 141.469C124.58 137.166 135.722 139.328 138.562 153.053C143.827 153.053 146.784 155.318 149.981 157.493C151.288 158.383 150.379 160.649 151.94 161.348C154.829 162.376 159.933 162.124 162.714 163.389C175.36 169.14 186.624 177.481 194.021 189.663C210.605 215.67 221.997 270.456 220.025 301.281C220.889 302.634 219.695 304.575 219.391 306.031C219.008 307.297 217.767 308.139 216.472 307.995C214.665 309.937 211.869 310.37 209.382 310.772Z" fill="white"/>
<path fill-rule="evenodd" clip-rule="evenodd" d="M85.1413 169.243C85.3256 169.14 85.1634 168.877 84.9782 168.964C76.0764 173.138 69.2474 180.46 64.4424 188.92C59.4668 197.68 56.631 207.626 54.1862 217.347L54.098 217.699C51.4909 228.098 49.2743 238.605 47.2786 249.137C45.2575 259.803 43.6352 270.535 42.3302 281.311C41.6846 286.639 41.1091 291.977 40.6601 297.325C40.4359 299.998 40.2321 302.673 40.049 305.349C39.9758 306.419 39.9069 307.489 39.8478 308.56L39.8054 309.364C39.7689 310.093 39.6823 310.823 39.8624 311.542C40.018 312.162 40.3463 312.723 40.6351 313.292C41.2062 314.417 42.772 314.232 43.3875 313.292L43.5663 313.019C43.9744 312.388 44.3136 311.802 44.4416 311.018C44.5655 310.258 44.5701 309.462 44.6257 308.694C44.7279 307.282 44.815 305.869 44.9142 304.457C45.1226 301.484 45.3567 298.513 45.6159 295.544C46.1285 289.682 46.6783 283.827 47.3535 277.982C48.5533 267.594 50.0589 257.233 51.8337 246.928C53.5679 236.862 55.7601 226.897 58.0472 216.945L58.2841 215.915C62.2884 198.539 68.4601 178.529 85.1413 169.243ZM179.958 237.283C179.892 237.109 179.611 237.069 179.563 237.283C178.963 239.981 178.904 242.76 178.812 245.523C178.722 248.248 178.726 250.985 178.765 253.712C178.912 263.733 179.187 273.746 179.425 283.765C179.544 288.777 179.656 293.789 179.742 298.802C179.774 300.682 179.801 302.562 179.824 304.442L179.852 306.922C179.865 308.018 179.894 309.101 180.028 310.196C180.116 310.916 180.304 311.603 180.702 312.221C180.984 312.659 181.387 312.881 181.779 313.179L181.853 313.236C182.353 313.631 182.88 313.634 183.376 313.236L183.52 313.122C183.993 312.752 184.402 312.463 184.704 311.878C185.125 311.065 185.192 310.181 185.264 309.284C185.372 307.925 185.3 306.546 185.286 305.182C185.258 302.448 185.22 299.714 185.172 296.979C184.996 286.951 184.648 276.922 184.013 266.913C183.714 262.198 183.308 257.468 182.764 252.772L182.661 251.892C182.496 250.51 182.345 249.104 182.176 247.693C184.707 245.914 186.932 243.755 188.829 241.306C188.969 241.126 188.739 240.873 188.57 241.048C186.632 243.054 184.409 244.653 181.948 245.911C181.545 242.957 180.99 240.02 179.958 237.283ZM137.671 147.897C137.636 147.87 137.582 147.858 137.549 147.897C137.005 148.531 137.115 149.5 137.098 150.303L137.096 150.378C137.057 151.553 137.049 152.724 137.053 153.899L137.065 157.639V157.639C137.067 158.154 137.109 158.689 137.082 159.207L137.069 159.407V159.407C136.783 159.699 136.65 160.122 136.747 160.547C136.764 161.091 137.049 161.546 137.465 161.831L136.574 163.094V163.094L135.682 164.357C133.845 166.962 131.987 169.543 130.05 172.077C128.076 174.66 125.969 177.145 123.765 179.535C122.688 180.703 121.593 181.854 120.472 182.98C120.017 183.438 119.55 183.884 119.088 184.335L118.629 184.789C118.358 185.06 118.016 185.328 117.836 185.672C117.73 185.874 117.706 186.374 117.668 186.457C117.328 187.204 117.908 188.395 118.872 188.022L118.829 187.993C118.653 187.871 118.766 187.869 119.166 187.988C119.419 187.987 119.656 187.929 119.877 187.814L119.943 187.778C120.255 187.619 120.533 187.313 120.787 187.068L120.85 187.008C121.429 186.466 121.981 185.89 122.536 185.323C123.695 184.141 124.827 182.933 125.923 181.692C128.111 179.217 130.184 176.642 132.148 173.987C134.148 171.283 136.007 168.44 137.606 165.48C138.213 164.357 138.769 163.212 139.302 162.054C140.34 161.721 140.581 160.618 140.509 159.375C140.892 158.483 141.237 157.574 141.441 156.644C141.469 156.517 141.305 156.397 141.207 156.508C140.875 156.885 140.568 157.286 140.272 157.698C140.094 156.827 139.868 156.025 139.762 155.513L139.302 153.257V153.257C141.895 153.122 144.737 154.186 146.524 156.05C146.621 156.536 146.994 156.883 147.359 157.337C147.775 157.856 148.138 158.438 148.409 159.046C149.01 160.396 148.671 162.384 149.837 163.374C149.958 163.477 150.094 163.549 150.234 163.593C149.681 166.304 149.932 169.292 149.944 172.042L149.945 172.284C149.942 175.363 150.045 178.444 150.164 181.52L150.285 184.564C150.442 188.624 150.544 192.686 150.149 196.724C148.346 195.128 146.483 193.606 144.555 192.155C143.287 191.201 141.994 190.281 140.678 189.396L139.608 188.681C138.326 187.822 137.013 186.938 135.61 186.323C133.774 185.519 132.028 185.795 130.256 186.62C128.491 187.442 126.779 188.397 125.047 189.287C123.287 190.193 121.522 191.091 119.759 191.991C118.591 192.588 116.879 193.126 116.022 194.224C115.967 193.981 115.904 193.739 115.829 193.498C115.914 193.13 115.882 192.732 115.675 192.353C112.796 187.066 110.133 181.654 107.488 176.248C106.149 173.512 104.876 170.744 103.535 168.009L102.231 165.346C102.013 164.903 101.795 164.459 101.575 164.017C101.246 163.354 100.903 162.698 100.571 162.037C100.43 161.757 100.254 161.48 100.117 161.198L100.052 161.057C100.049 161.049 99.7329 160.057 99.977 160.151L99.998 160.161C100.123 160.232 100.222 160.075 100.142 159.975C99.7965 159.549 99.3159 159.927 99.119 160.321C98.5764 161.408 99.5705 163.113 99.9529 164.153L99.9739 164.211C101.161 167.568 102.504 170.862 103.881 174.144C106.52 180.437 109.356 186.633 112.186 192.841L112.219 192.947V192.947C111.616 192.485 110.971 192.066 110.42 191.657C109.028 190.627 107.596 189.648 106.166 188.671C103.544 186.881 100.85 185.208 98.112 183.602L97.5638 183.281C96.196 182.485 94.8412 181.839 93.2178 182.078C91.7095 182.3 90.3073 183.11 88.9448 183.768L88.804 183.835L84.5937 185.836C85.0438 184.042 85.5311 182.257 86.0396 180.479C87.0312 177.01 88.1223 173.57 89.3055 170.161C90.4106 166.976 91.6053 163.826 92.8689 160.701L93.2494 159.763C93.7646 158.476 94.2769 157.073 95.7494 156.677C97.221 156.281 98.909 156.868 100.254 156.03C100.376 155.954 100.361 155.752 100.213 155.715L99.3829 155.506C97.8247 155.119 95.9979 154.729 94.5244 155.106C92.9209 155.516 91.5943 156.861 90.8164 158.259C89.9514 159.814 89.3416 161.555 88.6852 163.213L88.5811 163.475C87.8277 165.351 87.1031 167.24 86.4097 169.14C85.0234 172.937 83.7613 176.781 82.619 180.659C82.0685 182.528 81.5463 184.406 81.0443 186.289C80.9 186.83 80.662 187.487 80.4667 188.172C80.2429 188.39 80.031 188.633 79.8323 188.911C79.5026 189.371 79.7393 189.911 80.1491 190.187C80.165 190.658 80.2698 191.101 80.5202 191.481C81.4978 192.964 84.0823 192.582 83.9773 190.588C83.9614 190.283 83.8424 189.992 83.6623 189.746L83.6674 189.706V189.706L83.6878 189.633V189.633C84.1365 189.418 84.5871 189.178 85.062 188.944L89.4806 186.762V186.762C90.7603 186.13 92.1788 185.153 93.6019 184.912C94.9286 184.688 96.3284 185.676 97.4684 186.272L97.5424 186.31C100.298 187.722 103.034 189.18 105.758 190.651C107.088 191.369 108.401 192.117 109.726 192.843C110.834 193.451 112.03 194.323 113.275 194.666C113.807 195.079 114.439 195.023 114.946 194.711C114.714 196.147 114.729 197.621 114.657 199.09C114.562 201.053 114.547 203.021 114.515 204.987L114.503 205.724C114.419 210.069 114.374 214.416 114.358 218.763C114.299 234.241 114.47 249.723 114.51 265.201C114.53 272.978 114.684 280.761 114.886 288.535C114.972 291.829 115.151 295.119 115.345 298.408L115.451 300.202C115.677 303.987 115.81 307.814 116.511 311.548C116.603 312.035 117.427 312.048 117.508 311.548C118.154 307.547 118.189 303.458 118.313 299.409L118.34 298.6C118.489 294.254 118.56 289.91 118.544 285.561C118.489 270.077 118.087 254.602 117.757 239.123C117.591 231.345 117.48 223.564 117.223 215.789C117.094 211.899 116.948 208.011 116.776 204.122C116.698 202.386 116.624 200.651 116.509 198.918L116.457 198.175C116.421 197.69 116.392 197.211 116.357 196.737C117.924 197.309 119.358 196.25 120.768 195.525C122.393 194.689 124.018 193.852 125.644 193.018L127.271 192.186V192.186L130.528 190.525C131.994 189.777 133.124 189.033 134.688 189.91C140.322 193.069 145.5 197.273 150.192 201.683C151.091 202.529 152.992 202.302 153.22 200.884C154.194 194.828 153.602 188.684 153.105 182.609L152.922 180.354C152.7 177.661 152.458 174.967 152.136 172.284C151.991 171.084 151.848 169.885 151.689 168.687L151.567 167.789C151.368 166.369 151.239 164.958 150.816 163.597C150.949 163.553 151.078 163.483 151.192 163.374C152.465 162.167 151.851 160.074 151.271 158.639C150.697 157.222 149.823 155.986 148.729 154.922C148.49 154.69 148.153 154.54 147.815 154.532C145.161 152.775 142.249 151.898 139.218 152.857C139.133 152.45 139.046 152.044 138.955 151.639L138.862 151.235C138.626 150.229 138.538 148.569 137.671 147.897ZM110.467 306.611C109.643 306.385 108.742 306.624 108.138 307.227C107.535 307.83 107.296 308.731 107.523 309.554C107.636 309.959 107.841 310.311 108.138 310.61C108.415 310.885 108.739 311.082 109.108 311.199L109.194 311.225L109.329 311.281C109.742 311.392 110.155 311.392 110.568 311.281C110.962 311.17 111.305 310.971 111.596 310.682C111.885 310.392 112.084 310.049 112.195 309.655C112.306 309.242 112.306 308.829 112.195 308.417L112.139 308.282V308.282C112.025 307.877 111.82 307.525 111.523 307.227C111.225 306.93 110.873 306.725 110.467 306.611ZM61.5594 224.584C61.424 224.429 61.2046 224.628 61.2887 224.793C62.5716 227.306 64.0016 229.802 65.407 232.252C65.2945 232.931 65.1828 233.604 65.0544 234.261C64.5069 237.059 63.8362 239.806 63.399 242.631C61.8275 252.784 61.0116 263.048 60.3116 273.292C59.6094 283.574 59.5196 293.86 59.4141 304.161C59.405 305.054 60.0921 306.091 61.013 306.26C61.4346 306.337 61.75 306.322 62.1707 306.26C63.129 306.119 63.7285 305.022 63.7696 304.161C64.0444 298.404 64.414 292.654 64.8423 286.905C65.6014 276.714 66.0653 266.496 66.6785 256.294L66.8944 252.729C67.1262 248.865 67.3382 244.999 67.4073 241.13C67.4532 238.566 67.3161 236.004 67.4004 233.443C67.4783 231.079 67.7181 228.509 67.1966 226.186C67.1773 226.099 67.0397 226.077 66.9999 226.161C66.4577 227.301 66.1142 228.541 65.8495 229.807C64.4522 228.041 63.0291 226.271 61.5594 224.584ZM153.092 162.141C152.896 162.127 152.904 162.421 153.092 162.443C155.835 162.761 158.484 163.876 161.073 164.824L161.295 164.905C163.911 165.853 166.462 166.956 168.916 168.271C173.715 170.842 178.122 174.157 182.018 177.951C197.573 193.1 204.662 214.944 209.857 235.472C212.743 246.877 214.795 258.475 216.126 270.162C216.783 275.942 217.248 281.744 217.519 287.555C217.658 290.533 217.746 293.514 217.782 296.495C217.801 298.022 217.807 299.549 217.805 301.076C217.804 301.776 217.679 302.657 217.866 303.336C218.04 303.966 218.53 304.52 218.892 305.044C219.321 305.667 220.093 305.634 220.529 305.044L220.689 304.83C221.153 304.214 221.608 303.626 221.674 302.821C221.745 301.959 221.695 301.07 221.698 300.203C221.706 298.458 221.684 296.713 221.649 294.968C221.582 291.623 221.45 288.28 221.254 284.941C220.856 278.163 220.201 271.4 219.263 264.676C217.596 252.725 215.097 240.887 211.824 229.273C208.736 218.316 205.078 207.391 199.867 197.242C195.028 187.818 188.681 179.052 180.305 172.466C176.41 169.403 172.17 166.851 167.598 164.929C165.293 163.959 162.871 163.168 160.409 162.717C157.974 162.27 155.55 162.333 153.092 162.141ZM109.995 287.244C109.56 287.241 109.075 287.336 108.702 287.577L108.203 287.962V287.962C108.068 288.135 107.934 288.309 107.8 288.484C107.488 288.89 107.447 289.547 107.512 290.031C107.526 290.354 107.622 290.654 107.8 290.932L108.179 291.424V291.424C108.544 291.721 108.848 291.933 109.29 292.076C109.521 292.151 109.744 292.166 109.965 292.155L110.039 292.15L109.995 292.156L110.072 292.148V292.148C110.145 292.141 110.217 292.134 110.29 292.124C110.339 292.117 110.389 292.114 110.438 292.107C110.486 292.103 110.532 292.101 110.58 292.106C111.141 292.158 111.706 291.84 112.104 291.475C112.463 291.145 112.786 290.446 112.736 289.951L112.714 289.744C112.676 289.395 112.645 289.258 112.497 288.907C112.353 288.566 112.152 288.265 111.879 288.01C111.355 287.523 110.714 287.249 109.995 287.244ZM111.733 261.692C110.988 260.88 109.708 260.82 108.784 261.311C108.558 261.431 108.352 261.623 108.153 261.784C107.653 262.188 107.456 262.917 107.429 263.531C107.402 264.138 107.722 264.86 108.153 265.279L108.258 265.38V265.38C108.515 265.63 108.884 265.848 109.244 265.914C109.825 266.021 110.313 266.018 110.855 265.79C111.319 265.594 111.72 265.278 111.993 264.851L112.037 264.779C112.056 264.749 112.073 264.718 112.09 264.687L112.114 264.64C112.632 263.645 112.492 262.518 111.733 261.692ZM111.347 236.005C111.011 235.9 110.675 235.885 110.339 235.96C110.111 235.96 109.898 236.018 109.701 236.132C109.487 236.192 109.301 236.3 109.143 236.457C108.953 236.569 108.802 236.72 108.689 236.91C108.466 237.154 108.315 237.441 108.237 237.77L108.147 238.441L108.237 239.113L108.492 239.717V239.717C108.562 239.808 108.632 239.899 108.704 239.99C108.816 240.181 108.968 240.332 109.158 240.445C109.282 240.568 109.424 240.66 109.583 240.724C110.146 241.127 110.896 241.259 111.563 241.075C111.959 240.964 112.303 240.764 112.594 240.474C112.884 240.183 113.085 239.839 113.195 239.443L113.241 239.127C113.3 238.704 113.309 238.469 113.189 237.93C113.136 237.693 112.984 237.359 112.904 237.218C112.562 236.618 112.003 236.206 111.347 236.005ZM82.1607 217.525C81.1956 217.518 80.2304 217.52 79.2654 217.531L78.5417 217.54C77.3297 217.559 76.2917 217.435 75.3389 218.275C74.6473 218.885 74.952 219.908 75.6084 220.367C76.603 221.063 77.8506 220.713 78.9938 220.636C80.1996 220.556 81.4062 220.489 82.6133 220.434C84.9506 220.33 87.2888 220.263 89.6284 220.253C91.9629 220.243 94.3009 220.265 96.6352 220.303C99.0104 220.341 101.483 220.563 103.845 220.317C104.17 220.283 104.243 219.857 103.923 219.746C101.697 218.976 99.1933 218.727 96.8608 218.433C94.4551 218.129 92.0493 217.914 89.6284 217.775C87.1418 217.632 84.6515 217.542 82.1607 217.525ZM111.351 209.967L111.272 209.969C110.847 209.97 110.449 210.07 110.079 210.269L110 210.313L109.49 210.706C109.177 211.021 108.961 211.391 108.842 211.818L108.752 212.487V212.487C108.738 212.834 108.811 213.157 108.969 213.458C109.07 213.77 109.244 214.04 109.49 214.268C109.718 214.514 109.988 214.687 110.301 214.789C110.578 214.934 110.875 215.007 111.192 215.008L111.272 215.006C111.726 215.004 112.151 214.89 112.543 214.662L113.054 214.268V214.268C113.366 213.954 113.582 213.584 113.702 213.157L113.792 212.487V212.487C113.805 212.141 113.733 211.817 113.575 211.517C113.473 211.205 113.299 210.935 113.054 210.706C112.825 210.461 112.555 210.287 112.243 210.186C111.965 210.04 111.668 209.967 111.351 209.967V209.967ZM103.88 150.802C103.337 150.016 102.353 150.715 102.494 151.347C102.457 153.122 102.366 154.844 101.962 156.583C101.777 157.379 101.535 158.175 101.161 158.904L101.004 159.211C100.52 160.167 100.144 161.068 100.796 162.116C101.103 162.61 101.658 162.981 102.26 162.955C104.928 162.84 105.295 159.128 105.457 157.056C105.625 154.921 105.104 152.576 103.88 150.802Z" fill="black"/>
<path fill-rule="evenodd" clip-rule="evenodd" d="M76.3012 103.339C77.172 89.0565 81.8093 72.8638 95.4576 65.8513C125.546 53.7832 165.106 84.1741 167.2 115.221C167.93 125.848 162.026 137.461 151.237 140.416C148.838 143.592 145.21 145.532 141.629 147.215C98.9809 169.329 71.4318 151.353 76.3012 103.339V103.339Z" fill="white"/>
<path fill-rule="evenodd" clip-rule="evenodd" d="M66.5849 94.4545C68.0921 90.2709 69.6843 86.1194 71.3592 82.0002C72.9904 77.9911 74.4639 73.8953 76.4896 70.0762C88.5884 47.2663 110.59 47.2663 121.962 50.2467C127.86 47.7071 138.907 48.4235 145.048 50.7151C154.99 54.425 167.109 69.0189 171.253 75.5758C180.401 90.0528 186.111 109.321 180.034 126.05C179.24 128.237 178.227 130.262 177.086 132.213C177.804 133.186 178.631 134.108 179.547 135.013C182.269 137.705 184.992 140.308 187.343 143.344C189.68 146.361 191.617 149.569 193.059 153.106C195.779 159.777 195.91 167.33 192.315 173.695C189.187 179.234 183.646 183.358 177.403 183.751C177.083 183.796 176.762 183.837 176.439 183.869C175.612 185.231 174.604 186.484 173.452 187.577C169.926 190.93 161.519 192.649 156.724 192.76C156.478 192.957 156.23 193.155 155.982 193.35C153.048 195.657 149.969 197.986 146.601 199.627C144.32 200.741 141.328 201.671 138.948 200.867C137.868 201.588 136.097 201.437 135.026 200.847C133.266 199.878 131.835 198.133 130.964 196.346C128.853 192.009 129.36 187.263 129.903 182.629C130.5 177.511 131.074 172.39 131.658 167.272C132.115 163.27 132.593 159.201 133.811 155.346C134.44 153.348 135.265 151.429 136.331 149.624C136.304 149.473 136.308 149.321 136.352 149.179C136.701 148.044 137.423 147.45 138.277 146.678C138.387 146.579 138.498 146.478 138.606 146.375C139.033 145.888 139.49 145.436 139.98 145.052C140.168 144.862 140.354 144.669 140.54 144.476C142.087 142.857 143.548 141.156 144.846 139.333C146.105 137.565 147.242 135.719 148.324 133.838C149.425 131.925 150.153 129.815 151.251 127.916C151.346 127.753 151.585 127.721 151.718 127.857C152.058 128.208 152.276 128.598 152.235 129.009L152.405 129.035C152.469 128.415 153.041 127.909 153.818 128.045C154.98 128.247 155.936 128.323 156.942 127.937C156.765 126.764 156.602 125.588 156.442 124.41C156.147 122.243 155.874 120.068 155.64 117.894C155.072 118.029 154.509 118.224 153.958 118.472C153.172 118.824 152.43 119.297 151.796 119.877C151.171 120.452 150.739 121.225 149.976 121.625C149.099 122.082 148.039 121.326 148.297 120.334C148.818 118.33 151.771 117.182 153.597 116.803C154.224 116.672 154.865 116.617 155.506 116.631C155.362 115.235 155.233 113.839 155.127 112.44C155.077 111.779 155.031 111.118 154.987 110.454C153.567 110.025 152.046 109.896 150.569 110.098C150.082 110.486 149.595 110.87 149.124 111.258C147.628 112.493 146.139 113.735 144.669 115C144.536 115.113 144.405 115.225 144.271 115.34C143.398 116.091 142.309 115.347 142.456 114.284C143.656 105.572 138.316 98.6427 132.065 93.2743C125.144 87.3295 112.563 86.6373 104.333 76.3401C100.543 77.1111 92.0807 79.4009 88.5884 84.9622C83.6993 92.7553 84.338 99.7379 83.9658 108.578C83.5936 117.425 82.647 126.653 84.6573 135.376C86.5114 143.42 91.5316 150.292 99.3202 153.452C99.5132 153.53 99.7085 153.606 99.9038 153.679C103.931 155.197 108.327 155.626 112.563 154.827C117.252 153.941 121.167 151.796 125.069 149.158C125.294 149.009 125.622 149.316 125.452 149.541C120.31 156.352 110.211 158.627 102.199 156.829C101.825 156.744 101.452 156.653 101.082 156.552C102.874 161.702 102.514 167.355 100.179 172.37C98.7757 175.387 96.6344 177.998 94.0267 180.057C91.1525 182.326 87.5867 184.158 85.5924 187.343C83.7659 190.261 84.3081 193.54 87.4351 195.226C88.2231 195.653 88.5264 197.033 87.7452 197.639C87.4465 197.869 87.1479 198.103 86.8423 198.332C85.0916 199.653 80.2828 202.133 79.504 202.224C72.5884 203.044 67.9382 197.97 64.9583 191.984C61.4591 184.957 62.3689 176.395 66.2242 169.704C69.3167 164.336 75.4075 159.045 72.9859 152.251C72.122 149.824 70.3552 147.755 68.6389 145.886C66.6814 143.757 64.5769 141.764 62.6998 139.56C60.8342 137.372 59.18 134.991 58.2564 132.245C56.9077 128.231 57.5786 123.891 58.5918 119.884C60.763 111.283 63.582 102.796 66.5849 94.4545Z" fill="black"/>
<path fill-rule="evenodd" clip-rule="evenodd" d="M105.322 139.36C106.866 138.73 108.244 137.68 109.252 136.338C109.602 135.871 109.693 135.379 109.619 134.928C109.537 134.422 109.237 133.963 108.828 133.655C108.418 133.346 107.905 133.193 107.409 133.271C106.977 133.338 106.548 133.574 106.209 134.064L106.138 134.161C105.539 134.971 104.758 135.636 103.869 136.064C103.012 136.477 102.053 136.669 101.061 136.557C99.1715 136.344 97.8692 135.323 96.485 133.936C96.3134 133.761 96.1418 133.58 95.9692 133.397C95.8603 133.231 95.7091 133.124 95.5412 133.068C95.3548 133.005 95.144 133.009 94.9509 133.076C94.7646 133.141 94.5981 133.264 94.4864 133.428C94.3803 133.584 94.3202 133.776 94.3397 133.998C94.4664 135.435 95.2182 136.717 96.2862 137.724C97.4723 138.843 99.0445 139.617 100.525 139.888C102.155 140.187 103.817 139.973 105.322 139.36V139.36ZM99.7554 117.188C98.0205 118.242 95.3769 120.7 97.2433 123.312C99.4403 125.616 102.603 122.975 104.162 121.78C105.607 120.854 107.231 123.236 105.89 124.317C94.627 132.651 90.0561 117.464 98.8779 115.949C99.8492 115.782 100.21 116.862 99.7554 117.188ZM119.94 107.494C119.748 105.116 116.124 104.576 115.764 106.929C115.441 109.037 115.821 110.973 116.771 112.871C117.679 114.684 119.96 113.838 120.133 112.187C120.364 109.974 120.059 108.973 119.94 107.494ZM92.3545 106.441C91.8493 105.78 91.1198 105.328 90.2459 105.583C87.5152 106.381 88.3201 110.255 89.2791 112.141C89.8001 113.165 91.4845 113.425 92.2456 112.523C93.4863 111.052 94.0804 108.116 92.5032 106.667C92.4604 106.593 92.4129 106.517 92.3545 106.441ZM116.809 97.0883L116.378 97.0129C115.044 96.7822 113.384 96.5606 112.441 97.6327C111.94 98.2013 111.768 99.258 112.441 99.8021C113.624 100.76 114.933 100.389 116.351 100.47C117.52 100.537 118.644 100.73 119.77 101.052C122.24 101.757 124.253 103.045 126.363 104.46C126.64 104.645 126.922 104.292 126.79 104.033C125.572 101.649 123.212 99.6903 120.848 98.4965C119.586 97.8594 118.205 97.3308 116.809 97.0883ZM94.8437 96.0204L94.5136 96.0879C90.9209 96.8384 86.2531 98.3377 84.5518 101.864C84.4869 102.363 84.5554 102.47 84.6111 102.54L84.6297 102.563C84.6756 102.623 84.7122 102.705 84.9285 102.773C84.9885 102.758 85.0491 102.743 85.1104 102.727C85.8902 102.523 86.5073 102.242 87.1046 101.95L87.7523 101.631C88.5037 101.263 89.2617 100.908 90.0651 100.646C91.7796 100.087 93.543 99.6933 95.3338 99.4831C95.7219 99.4375 96.0957 99.3066 96.3906 99.0822C96.6704 98.8693 96.8843 98.5744 96.9817 98.1825C97.1081 97.6752 97.0718 97.2912 96.7995 96.8336C96.5947 96.49 96.3017 96.2518 95.9653 96.115C95.6223 95.9755 95.2318 95.9427 94.8437 96.0204Z" fill="black"/>
</svg>
